<?xml version="1.0" standalone="no"?>
<svg viewBox="-900 -300 2600 2600" style="width: 390px; height: 390px; justify-content: center; align-self: center; transform: scale(1, 1);" xmlns="http://www.w3.org/2000/svg"><g transform="rotate(0 580.4858093261719 984.0156097412109)"><g id="pose_sitting_one_leg_up-2" data-name="pose/sitting/one_leg_up-2" transform="translate(-172 456)"><path id="_Skin" data-name="âœ‹ Skin" d="M720.033,1597.493a253.986,253.986,0,0,1-52.2-5.425c-53.533-11.238-102.168-37.749-143.552-61.717-1.981-1.124-3.956-2.228-6.047-3.4l-.006,0-.406-.227-.021-.012c-16.2-9.062-36.351-20.339-48.981-34.091-13.862-15.094-16.247-30.134-7.507-47.333l1.383-2.721-1.445-2.691c-9.05-16.846-8.377-37.688,1.636-50.684l8.416-10.92-13.837,1.468c-13.935,1.479-27.981,3.482-41.564,5.419l-.018,0-.032,0h-.008c-15.078,2.151-30.669,4.376-46.054,5.867l-4.271.415-.983,4.115c-.546,2.291-1.22,3.682-5.962,3.682-4.109,0-9.628-1.2-15.472-2.475l-.011,0h-.007c-7.256-1.58-15.479-3.371-23.409-3.371a42.214,42.214,0,0,0-9.6,1.018l-1.727.4-1.229,1.259a5,5,0,0,1-3.491,1.3,4.34,4.34,0,0,1-2.633-.789l-1.939-1.515-2.459.27c-42.843,4.7-79.784,12.959-112.936,25.237l-.15.056-.719.31-.01,0c-11.982,5.171-24.372,10.519-35.657,10.519-8.25,0-14.951-2.807-21.087-8.834l-1.733-1.7-2.446-.024c-24.817-.229-36.158-29.168-37.726-48.565l-.2-2.443-1.892-1.588c-43.251-36.3-68.786-86.147-78.064-152.4-8.45-60.347-1.962-123.976,5.5-178.26C26.742,897.009,44.748,770.861,90.5,651.256l2.138-5.592-5.7-2.046c-19.763-7.1-34.867-15.575-46.176-25.9L39.987,617,39,616.593c-16.2-6.658-24.145-31.238-26.193-38.614l-.164-.6-.286-.547c-3.307-6.345-4.069-15.17-2.092-24.212l.211-.974-.122-.99c-1.068-8.585,2.476-17.561,6.229-27.064,1.715-4.342,3.486-8.828,4.783-13.3,4.4-12.63,8.8-25.47,13.043-37.887l.158-.461.04-.116,0-.01c9.638-28.169,19.6-57.3,30.218-85.631l1.454-3.881-3.2-2.675c-5.468-4.567-3.642-9.944,4.243-22.8a95.2,95.2,0,0,0,4.965-8.739c10.107-17.465,20.941-34.232,32.2-49.836l.232-.32.185-.346C162.7,189.665,265.2,130.226,393.544,130.226l2.616.005,1.445-.87C421.66,114.9,438.831,90.078,450.1,53.487l.36-1.166-.139-1.211a83.814,83.814,0,0,1-.664-12.084c.367-10.866,4.626-20.562,11.684-26.6C474.732.959,495.062,0,514.736,0l2.825,0c25.155.072,42.914,4.44,55.89,13.747,15.076,10.813,23.408,28.269,25.473,53.365.616,7.487.6,15.243.577,22.742v.069l0,2.1.253.833a148.445,148.445,0,0,0,6.294,17.035l2.436,5.493,5.54-2.477c3.585-1.6,8.129-2.425,13.89-2.516,1.637-.038,3.246-.057,4.918-.057,13.37,0,27.67,1.22,41.5,2.4l.045,0c10.428.891,21.207,1.811,31.662,2.22l.143.006h.073c1.206-.007,1.762-.009,2.016-.009,25.379,0,43.777,3.991,57.9,12.561,15.205,9.227,26.138,24.035,34.405,46.6C844.914,303.5,863.14,442.823,879.22,565.75c9.121,64.282,11.895,130.179,14.578,193.907v.016l0,.056c2.832,67.254,5.761,136.8,16.127,204.776l.819,5.376,5.506-.356c24.217-1.562,50.386-4.928,78.092-8.492l.014,0,.032,0c42.119-5.418,85.673-11.02,127.777-11.02,58.875,0,103.5,11.582,136.437,35.408,22.958,21.634,34.835,50.933,34.347,84.73-.689,47.762-25.952,100.567-64.36,134.526l-.145.133c-48.548,45.863-137.163,85.641-263.386,118.23-116.076,29.97-236.134,46.254-297.367,53.293l-15.156,1.743,12.3,8.894c4.959,3.586,9.5,6.756,13.889,9.691l2.817,1.883,3.086-1.415c8.8-4.035,14.39-4.883,17.53-4.883,2.787,0,6.149.605,6.334,3.489a4.877,4.877,0,0,1-4.06,5.047l-15.064,1.88,12.3,8.772c8.2,5.85,20.434,12.9,34.6,21.06l.071.041c46.44,26.757,116.619,67.193,104.549,102.7l-.792,2.333,1.122,2.2c3.243,6.358,3.519,12.259.844,18.04-5.729,12.39-23.655,21.8-38.878,25.625l-.261.066-.255.089A250.545,250.545,0,0,1,720.033,1597.493ZM735.246,509.631l-11.936.46c-3.214,55.987-6.328,112.855-9.34,167.85-1.2,21.831-2.588,47.243-3.987,72.575-4.764,61.167-3.118,110.675,5.179,155.8,2.239,23.359-2.34,45.672-13.243,64.527l-3.548,6.136,6.753,2.362c12.29,4.3,25.958,6.388,41.783,6.388,16.3,0,33.23-2.269,46.829-4.092l8.716-1.167-4.28-7.568c-3.44-6.078-4.078-13.442-4.753-21.239l0-.018-.013-.147V951.5c-.178-2.047-.361-4.164-.6-6.257C779.909,830,763.612,713.246,747.852,600.341l-.006-.045C743.927,572.237,739.487,540.435,735.246,509.631Z" transform="translate(107 -77.003)" fill="#d08b5b"></path><path id="_Shoes" data-name="ðŸ‘Ÿ Shoes" d="M625.387,357.049a76.521,76.521,0,0,1-15.242-1.306c-5.933-.9-30.466-8.334-51.447-14.989-25.094-7.96-45.942-15.023-50.7-17.177l-86.769-50.351-2.659-1.166-3-1.314-2.537-1.011a102.881,102.881,0,0,1-14.966-7.412,70.865,70.865,0,0,1-13.678-10.528,39.473,39.473,0,0,1-9.1-13.511,28.447,28.447,0,0,1-1.238-16.361,54.6,54.6,0,0,0,1.713-17.014,59.453,59.453,0,0,0-2.295-11.807c-1.4-5.186-2.731-10.084-1.7-16.882a124.523,124.523,0,0,1,5.078-20.895,128.14,128.14,0,0,1,9.022-20.59,73.042,73.042,0,0,0,20.253,16.389,44.592,44.592,0,0,0,20.828,5.5,37.1,37.1,0,0,0,12.083-2.012,40.483,40.483,0,0,0,11.249-6.059,52.57,52.57,0,0,0,10.023-10.14,75.151,75.151,0,0,0,8.4-14.254l.418-.812.411-.815c.728-1.453,1.432-2.914,2.178-4.461,2.663-5.525,5.417-11.239,9.087-16.154,4.171-5.586,8.886-9.192,14.417-11.024a24.585,24.585,0,0,1,13.5-4.438A15.716,15.716,0,0,1,519.456,90.4a9.6,9.6,0,0,0,1.119-2.66c1.481,2.107,14.2,13.793,34.86,31.3,13.585,11.511,40.818,34.164,70.566,56.54,16.569,12.463,33.839,23.756,50.54,34.677l.006,0c15.344,10.034,29.838,19.511,42.264,28.923a203.043,203.043,0,0,1,16.88,14.093,97.032,97.032,0,0,1,12.675,14.238,42.918,42.918,0,0,1,5.228,11.742,126.837,126.837,0,0,1,3.6,15.279c.865,4.911,1.509,9.957,1.813,14.208.3,4.134.25,7.163-.129,8.529-.783.994-3.438,2.869-7.889,5.573-3.561,2.163-8.274,4.859-14.009,8.013-9.719,5.345-19.23,10.27-19.323,10.319l-.084.023c-15.252,4.125-28.187,7.007-36.352,8.7-10.191,2.11-19.723,3.781-28.331,4.967A206.414,206.414,0,0,1,625.387,357.049ZM63.576,191.8a15.423,15.423,0,0,1-7.84-2.108,31.534,31.534,0,0,1-5.887-4.639q-.411-.389-.815-.776l-.047-.045c-3.189-3.048-6.2-5.926-10.289-5.926a9.136,9.136,0,0,0-.93.048c-3.858.4-6.1.557-7.738.557-2.973,0-4.132-.549-5.6-1.778-3.115-2.576-6.32-7.035-9.526-13.253a136.017,136.017,0,0,1-8.041-19.766,165.9,165.9,0,0,1-5.343-20.754c-1.237-6.689-1.732-12.3-1.431-16.217a67.7,67.7,0,0,1,3.3-13.913A72.066,72.066,0,0,1,9.422,80.4,94.23,94.23,0,0,1,28.646,57.868C43.352,45.025,63.423,33.849,88.3,24.652a351.271,351.271,0,0,1,36.2-11.085c12.035-3.017,24.7-5.6,37.635-7.67A458.22,458.22,0,0,1,233.25,0c9.308,0,18.039.355,25.951,1.056L260.964,5.1c8.548,19.557,26.666,60.13,33.981,76.4a64.609,64.609,0,0,0-5.52-8.531c-.793-1.033-1.369-1.536-1.762-1.536a.414.414,0,0,0-.321.152c-.78.887-.183,5.473.72,12.415,1.031,7.92,2.441,18.76,2.466,29.78A154.245,154.245,0,0,1,286.806,146c-1.964,8.853-4.167,15.014-4.992,15.214a.561.561,0,0,1-.13.013,28.953,28.953,0,0,1-5.07-1.554c-2.639-.922-6.248-2.182-10.441-3.428A131.5,131.5,0,0,0,252,152.817a92.286,92.286,0,0,0-16.3-1.557,67.044,67.044,0,0,0-10.494.8c-4.144.66-8.735,1.34-13.6,2.061H211.6c-20.63,3.058-46.306,6.864-72.187,13.93-12.166,3.321-24.178,7.675-35.8,11.886-13.123,4.757-25.518,9.249-36.1,11.444A19.515,19.515,0,0,1,63.576,191.8Z" transform="translate(188 1163.423)" fill="#fff"></path><path id="_Top" data-name="ðŸ‘• Top" d="M608.318,908.238a219.058,219.058,0,0,1-33.722-2.847c-.562-.088-1.16-.184-1.94-.311l-7.9-1.33.877-8.4.142-1.394c1.573-15.517,2.674-30.591,3.272-44.8.612-14.543.718-28.693.317-42.056-.409-13.623-1.36-26.9-2.826-39.452-1.49-12.757-3.561-25.2-6.156-36.992A302.407,302.407,0,0,0,548.934,691.2a250.184,250.184,0,0,0-16.259-35.491,222.29,222.29,0,0,0-21.265-31.44,216.524,216.524,0,0,0-26.469-27.3l-1.182-1.014-.167-.142-2.973,4.026-8.051-6.855c-17.523-14.89-42.521-35.41-74.3-60.988-25.424-20.464-55.218-44.191-88.555-70.523C252.84,416.556,204.954,379.3,204.477,378.93l30.671-43.985-.053-.053a14.675,14.675,0,0,0-1.272-1.081l-.5-.378-.246-.181c-.674-.491-8.221-4.037-21.341-9.867-8.578-3.812-26.075-11.495-46.881-20.128-20.329-8.435-38.216-15.46-53.164-20.877-18.333-6.645-31.855-10.721-40.189-12.115l-1.76-.29-1.759-.283-1.422-.223-2.236-.341L55,267.722l3.474-8.772c.452-1.142.928-2.334,1.413-3.542,4.6-11.461,9.136-17.4,13.935-23.7a107.1,107.1,0,0,0,10.648-16.092l.713-1.346,1.417-2.866q.785-1.567,1.586-3.173l.006-.013c4.707-9.419,10.04-20.091,16.116-31.069a359.606,359.606,0,0,1,21.009-33.782c4.184-5.916,8.545-11.617,12.963-16.945,4.791-5.776,9.816-11.317,14.936-16.467a229.117,229.117,0,0,1,17.157-15.6A220.586,220.586,0,0,1,190,80a341.939,341.939,0,0,1,57.443-29.673A417.641,417.641,0,0,1,300.3,32.956c16.657-4.289,30.577-6.8,39.322-8.159,9.982-1.546,16.018-2.033,16.836-2.033a.38.38,0,0,1,.105.007,256.465,256.465,0,0,0,9.923,27.666A258.37,258.37,0,0,0,379.1,76.459,178.441,178.441,0,0,0,397,103c9.935,12.014,24.037,22.267,34.118,28.753,5.736,3.69,11.758,7.176,17.415,10.081a105.47,105.47,0,0,0,13.066,5.808l1,.338,1.025.338a171.177,171.177,0,0,0,26.127,6.3,168.753,168.753,0,0,0,26.451,2.107,157.932,157.932,0,0,0,26.481-2.208,141.074,141.074,0,0,0,25.058-6.646l.779-.292.488-.213a74.613,74.613,0,0,0,12.878-7.333,72.682,72.682,0,0,0,10.935-9.588,79.766,79.766,0,0,0,9.05-11.774,96.465,96.465,0,0,0,7.223-13.891l.292-.7.288-.7a145.734,145.734,0,0,0,9.378-39.037,235.369,235.369,0,0,0,.255-45.334l-.1-1.1-.145-1.58-.007-.094L609.55,0l20.143.711,1.774.072c6.385.275,13.2.737,23.519,1.595l2.681.225L677.074,5.69c6.251.989,11.757,1.854,16.832,2.644L704.45,9.969l12.494,1.914,1.376.219c9.9,1.6,17.554,3.528,24.1,6.071a59.945,59.945,0,0,1,18.009,10.721l.465.41.2.181.19.2A100.823,100.823,0,0,1,772.7,43.942a148.316,148.316,0,0,1,10.082,17.834,227.178,227.178,0,0,1,8.914,21.409c2.743,7.589,5.4,16,7.906,24.987l.648,2.347.585,2.154c6.2,23.008,31.594,159.77,31.85,161.149l-8.781.663c-1.082.082-2.156.178-3.191.287a130.684,130.684,0,0,0-24.4,5.106,172.056,172.056,0,0,0-24.726,9.766,182.986,182.986,0,0,0-23.354,13.528,156.579,156.579,0,0,0-20.281,16.393c-1.439,1.387-2.9,2.864-4.355,4.39l-.87.922-7.813,8.354c-.066,1.017-6.806,104.734-12.988,211.168-3.623,62.373-6.339,113.317-8.072,151.417-2.166,47.621-2.795,75.188-1.867,81.936l.212,1.525.245,1.112a221.356,221.356,0,0,1,4.706,31.946,139.5,139.5,0,0,1-.708,27.737,91.193,91.193,0,0,1-6.175,23.359,69.283,69.283,0,0,1-11.693,18.809l-.589.662-.611.667a67.081,67.081,0,0,1-12.919,10.791,77.418,77.418,0,0,1-15.85,7.71,101.8,101.8,0,0,1-18.73,4.627A143.273,143.273,0,0,1,608.318,908.238Zm-593.75-5.668h0L0,899.3c1.3-10.41,2.635-20.624,3.974-30.36l.648-4.68c2.056-14.725,4.312-29.849,6.9-46.238l.8-5.039.495-3.585.327-2.329c2.659-18.8,5.591-36.2,9.508-56.41,3.693-19.052,8.481-41.774,16.01-75.977l6.632-30.067c2.2-10.042,7.062-29.7,17.7-66.3,6.374-21.936,11.846-39.7,11.9-39.879l2.909.934,1.982.626c3.662,1.15,7.671,2.595,12.313,4.267l.008,0c8.268,2.979,17.64,6.355,28.635,9.36l18.074,4.933c5.041,1.384,8.775,2.427,12.487,3.486l5.6,1.613,2.474.729,9.655,2.9-5.01,8.284-2,3.311c-13.785,22.926-27.187,46.614-39.834,70.406-12.615,23.732-24.816,48.2-36.266,72.738-11.428,24.486-22.412,49.687-32.647,74.9-10.223,25.187-19.972,51.059-28.975,76.9-2.733,7.841-5.469,15.889-8.133,23.922l-1.59,4.82Z" transform="translate(120 28)" fill="#ffcf77"></path><path id="_Ink" data-name="ðŸ– Ink" d="M726.018,1579.988h-.009a260.186,260.186,0,0,1-53.455-5.554c-23.91-5.018-48.484-13.327-75.126-25.4-11.247-5.1-22.893-10.869-35.6-17.645-10.31-5.5-21.308-11.643-34.611-19.346-2.057-1.166-4.158-2.341-6.382-3.585l-.006,0c-8.321-4.654-17.751-9.929-26.6-15.755-10.156-6.69-17.968-13.072-23.883-19.512a63.266,63.266,0,0,1-8.485-11.449,43.7,43.7,0,0,1-4.882-12.73,39.671,39.671,0,0,1-.3-14.125,52.524,52.524,0,0,1,5.249-15.634,60.252,60.252,0,0,1-7.046-28.99c.169-10.738,3.353-20.428,9.207-28.024-13.842,1.469-27.842,3.466-41.381,5.4l-.027,0c-15.153,2.161-30.823,4.4-46.322,5.9a9.892,9.892,0,0,1-4.227,6.466,13.938,13.938,0,0,1-7.578,1.772c-4.766,0-10.6-1.271-16.777-2.616l-.214-.047-1.2-.262c-7.109-1.541-14.041-2.925-20.7-2.925a36.286,36.286,0,0,0-8.229.862,10.924,10.924,0,0,1-7.815,3.115,10.337,10.337,0,0,1-6.365-2.071,546.244,546.244,0,0,0-56.315,8.985c-9.532,2.062-18.893,4.4-27.824,6.963-9.375,2.686-18.578,5.695-27.351,8.944l-.576.249c-6.195,2.673-12.6,5.436-18.995,7.519a61.979,61.979,0,0,1-19.078,3.5c-9.805,0-18.088-3.452-25.321-10.555a34.931,34.931,0,0,1-18.247-5.223A44.688,44.688,0,0,1,96.28,1385.2a68.364,68.364,0,0,1-8.418-17.4,80.82,80.82,0,0,1-3.728-18.371A217.2,217.2,0,0,1,66.9,1333.3a212.009,212.009,0,0,1-14.881-17.331,214.794,214.794,0,0,1-12.673-18.416c-3.8-6.19-7.371-12.711-10.611-19.382a254.826,254.826,0,0,1-15.614-41.186,321.8,321.8,0,0,1-9.1-43.622,425.684,425.684,0,0,1-3.753-45.108c-.461-14.329-.313-29.685.438-45.642.672-14.274,1.807-29.067,3.47-45.225,1.376-13.371,3.123-27.717,5.342-43.857,3.845-31.339,8.06-64.937,12.82-98.291,5.19-36.362,10.464-68.465,16.124-98.143,6.66-34.921,13.853-66.595,21.989-96.832,4.381-16.279,9.089-32.28,13.995-47.561,5.137-16,10.662-31.743,16.422-46.8-20.528-7.375-36.3-16.245-48.2-27.118a34.259,34.259,0,0,1-10.724-7.23,56.037,56.037,0,0,1-8.458-10.709A86.108,86.108,0,0,1,17.2,568.49a105.445,105.445,0,0,1-4.2-12.2,35.3,35.3,0,0,1-3.728-13.947,50.857,50.857,0,0,1,1.108-14.205c-1.254-10.061,2.735-20.16,6.592-29.926,1.685-4.265,3.426-8.672,4.648-12.924,4.467-12.813,8.932-25.864,13.251-38.485,9.661-28.234,19.651-57.43,30.308-85.876a14.084,14.084,0,0,1-4.77-6.96,14.909,14.909,0,0,1,.053-7.653c1.261-5.241,4.536-10.58,7.7-15.744a88.341,88.341,0,0,0,4.763-8.394,599.777,599.777,0,0,1,32.651-50.543,350.09,350.09,0,0,1,24.634-39.522,321.886,321.886,0,0,1,28.669-34.426,306.618,306.618,0,0,1,32.416-29.276,303.175,303.175,0,0,1,35.876-24.073,311.006,311.006,0,0,1,39.048-18.817,329.563,329.563,0,0,1,41.933-13.507,358.517,358.517,0,0,1,44.529-8.143,397.787,397.787,0,0,1,46.838-2.726h.938a88.927,88.927,0,0,0,12.237-8.872,96.574,96.574,0,0,0,10.435-10.546A112.1,112.1,0,0,0,431.932,69.8a135.782,135.782,0,0,0,7.347-13,188.137,188.137,0,0,0,11.007-28.038c2.68-8.68,5.048-18.089,7.238-28.765a91.218,91.218,0,0,1,2.751,18.8,105.438,105.438,0,0,1-1,19.479,116.159,116.159,0,0,1-4.532,19.407A119.747,119.747,0,0,1,446.9,76.275a115.541,115.541,0,0,1-10.921,17.016,105.96,105.96,0,0,1-13.781,14.7,95.28,95.28,0,0,1-16.417,11.627,87.948,87.948,0,0,1-18.829,7.81c4.842,6.936,9.072,14.467,13.163,21.749,2.36,4.2,4.8,8.542,7.326,12.717,12.437,19.869,31.386,36.559,54.8,48.264A164.207,164.207,0,0,0,497.743,223a162.434,162.434,0,0,0,37.427,4.431,146.8,146.8,0,0,0,28.165-2.678,128.573,128.573,0,0,0,26.628-8.234c16.059-8.508,27.72-22.756,34.657-42.349a127.78,127.78,0,0,0,6.2-27.513,182.43,182.43,0,0,0,1.048-27.824c-2.451,2.612-4.988,3.936-7.539,3.937-2.945,0-5.96-1.754-8.963-5.214a53.517,53.517,0,0,1-7.46-12.175,127.291,127.291,0,0,1-8.348-24.412,88.98,88.98,0,0,1-1.762-23.588,74.934,74.934,0,0,1,5.092-23.064,1,1,0,0,1,.935-.679.984.984,0,0,1,.976.926,198.365,198.365,0,0,0,4.455,25.38,148.231,148.231,0,0,0,8.265,24.413c4.346-1.943,9.668-2.938,16.27-3.044,1.625-.038,3.312-.057,5.012-.057,13.64,0,28.083,1.232,42.05,2.424h.008c10.364.884,21.082,1.8,31.39,2.2.663-.005,1.334-.008,1.994-.008a163.769,163.769,0,0,1,33.854,3.066,85.662,85.662,0,0,1,27.194,10.37,72.272,72.272,0,0,1,11.3,8.472,79.115,79.115,0,0,1,9.866,10.957,100.279,100.279,0,0,1,8.515,13.66,140.535,140.535,0,0,1,7.243,16.584c5.284,15.407,10.38,31.493,15.149,47.809,4.548,15.562,8.946,31.844,13.072,48.393,7.636,30.631,14.521,62.721,21.048,98.1,11.789,63.908,20.412,127.688,29.671,198.458,2.2,15.5,4.084,31.351,5.761,48.452,1.494,15.237,2.789,31.128,3.957,48.581,2.17,32.422,3.56,65.439,4.9,97.369,1.413,33.552,2.874,68.246,5.242,102.3,1.274,18.328,2.7,35.014,4.366,51.012,1.867,17.954,3.98,34.588,6.46,50.851,24.034-1.551,50.124-4.906,77.746-8.458h.009c20.847-2.681,42.4-5.453,64.006-7.549,24.414-2.368,45.527-3.519,64.545-3.519,13.588,0,26.523.6,38.446,1.779a275.353,275.353,0,0,1,36.694,6.029,203.608,203.608,0,0,1,34.2,11.319,171.814,171.814,0,0,1,15.933,7.969,160.034,160.034,0,0,1,15.031,9.681,112.436,112.436,0,0,1,28.281,41.556,126.11,126.11,0,0,1,8.2,47.744c-.351,24.728-7.033,51.09-19.323,76.236a211.8,211.8,0,0,1-20.871,34.109,191.707,191.707,0,0,1-26.158,28.51,251.458,251.458,0,0,1-23.15,19.24c-8.213,6.069-17.294,12.105-26.99,17.941-9.383,5.647-19.6,11.259-30.353,16.68-10.393,5.237-21.576,10.437-33.239,15.456-22.076,9.5-46.714,18.716-73.23,27.393-24.44,8-51.038,15.719-79.055,22.952-48.729,12.579-102.672,23.947-160.329,33.788-24.042,4.1-48.82,7.953-73.646,11.441-21.488,3.019-43.093,5.781-64.216,8.209,4.907,3.546,9.391,6.675,13.71,9.564,7.864-3.606,14.614-5.434,20.062-5.434a18.013,18.013,0,0,1,5.41.754,11,11,0,0,1,3.777,2.01,8.7,8.7,0,0,1,3.138,6.28,10.932,10.932,0,0,1-2.292,7.253,10.442,10.442,0,0,1-7,4.011c7.981,5.691,20.123,12.686,34.182,20.785,24.449,14.085,54.874,31.613,77.21,50.468a155.2,155.2,0,0,1,15.068,14.388,82.881,82.881,0,0,1,10.86,14.771,44.378,44.378,0,0,1,5.4,14.99,31.757,31.757,0,0,1-1.327,15.047c4.022,7.88,4.367,15.607,1.026,22.965a35.42,35.42,0,0,1-7.3,10.217,59.485,59.485,0,0,1-10.708,8.362,89.854,89.854,0,0,1-24.929,10.5,256.013,256.013,0,0,1-41.757,10.679A260,260,0,0,1,726.018,1579.988ZM466.464,1426.915a35.467,35.467,0,0,0-.172,9.788,34.343,34.343,0,0,0,2.348,8.835,41.163,41.163,0,0,0,4.421,7.954,56.082,56.082,0,0,0,6.045,7.143c8.864,8.936,20.886,15.982,31.458,21.885,18.427,11.523,35.221,21.31,51.342,29.922,9.157,4.892,18.234,9.469,26.98,13.6,9.373,4.431,18.687,8.507,27.684,12.114,9.553,3.83,19.062,7.257,28.261,10.185,9.7,3.088,19.361,5.719,28.711,7.818a288.51,288.51,0,0,0,29.035,5.013,248.818,248.818,0,0,0,29.231,1.769h.006c7.381,0,14.76-.357,21.933-1.062a212.988,212.988,0,0,0,21.924-3.311,208.314,208.314,0,0,0,21.857-5.744,211.367,211.367,0,0,0,21.739-8.361l.222-.094a65.682,65.682,0,0,0,11.01-5.511c3.925-2.639,6.414-5.642,7.608-9.18A254.367,254.367,0,0,1,789.48,1544.1a269.842,269.842,0,0,1-50.754,4.808,267.011,267.011,0,0,1-50.732-4.836c-2.214-.564-4.7-1.033-7.334-1.53l-.011,0c-5.191-.978-11.074-2.087-15.913-4.212-5.543-2.434-8.909-5.846-10.291-10.431-15.669-6.978-31.585-14-46.978-20.794-24.927-11-50.7-22.374-75.972-33.8C506.991,1462.126,481.784,1449.331,466.464,1426.915Zm9.821-66.254a62.929,62.929,0,0,0-4.7,10.768,48.393,48.393,0,0,0-2.155,10.174,42.326,42.326,0,0,0,2.354,18.611,51.965,51.965,0,0,0,5.869,11.381,72.88,72.88,0,0,0,8.612,10.373,126.733,126.733,0,0,0,22.984,17.839,244.407,244.407,0,0,0,26.552,14.157c9.45,4.388,18.423,8.028,25.185,10.708,22.073,9.677,45.829,20.139,68.8,30.256,9.819,4.324,22.038,9.706,33.259,14.642l1.419.644.194.088.005,0c4.743,2.153,9.647,4.379,14.586,6.221a76.784,76.784,0,0,0,15.3,4.146,216.8,216.8,0,0,0,43.988,4.368,272.1,272.1,0,0,0,48.5-4.555c9.061-1.648,18.226-3.736,28.019-6.385,1.055-.286,2.227-.554,3.468-.837l.01,0a60.3,60.3,0,0,0,7.684-2.121,13.527,13.527,0,0,0,6.06-3.943,17.15,17.15,0,0,0-.518-10.094,38.854,38.854,0,0,0-6.17-10.984A94.459,94.459,0,0,0,814.8,1474.5c-4.057-3.766-8.9-7.8-14.384-11.988-9.409-7.183-20.994-15.054-35.417-24.062-12.594-7.866-25.776-15.615-37.407-22.451l-.005,0c-19.142-11.252-35.673-20.969-43.647-27.608-1.956.456-3.657.878-5.2,1.291a221.108,221.108,0,0,0-32.71,11.878,1.006,1.006,0,0,1-.412.093.805.805,0,0,1-.735-.458.85.85,0,0,1,.138-.914,113.184,113.184,0,0,1,24.74-22.154,265.252,265.252,0,0,1-27.631-23.936,133.106,133.106,0,0,0-17.076,5.687c-5.115,2.076-10.488,4.572-16.424,7.63-1.088,0-1.649-.335-1.666-.991-.026-1.014,1.216-2.78,3.692-5.249a98.719,98.719,0,0,1,8.427-7.291c6.266-4.919,12.872-9.294,14.137-9.361-6.025-6.687-11.022-14.221-15.855-21.508l-.014-.021c-2.058-3.1-4.187-6.313-6.371-9.422a9.594,9.594,0,0,1-1.12,2.66,15.715,15.715,0,0,0-10.732-3.946,24.593,24.593,0,0,0-13.5,4.438c-5.53,1.832-10.246,5.438-14.417,11.024-3.669,4.915-6.423,10.629-9.086,16.155-1.024,2.125-1.991,4.133-3.006,6.087a75.142,75.142,0,0,1-8.405,14.253,52.565,52.565,0,0,1-10.023,10.14,40.494,40.494,0,0,1-11.249,6.06,37.119,37.119,0,0,1-12.082,2.013,44.583,44.583,0,0,1-20.828-5.5,73.06,73.06,0,0,1-20.254-16.391ZM313.827,1248.73a403.156,403.156,0,0,0-61.122,4.443c-22.145,3.414-42.008,8.746-59.036,15.85a160.17,160.17,0,0,0-25.639,13.385,118.016,118.016,0,0,0-21.4,17.655,97.034,97.034,0,0,0-15.925,22.4,98.525,98.525,0,0,0-9.209,27.613,68.748,68.748,0,0,0,.181,12.467,62.878,62.878,0,0,0,2.593,12.5,50.279,50.279,0,0,0,5.291,11.516,39.845,39.845,0,0,0,8.276,9.5,23.939,23.939,0,0,0,15.937,5.784c8.606,0,17.55-3.817,26.2-7.507a132.011,132.011,0,0,1,13.133-5.082c12.227-4.261,24.914-8.055,37.708-11.277,12.532-3.156,25.49-5.845,38.512-7.99-.218-9.052-.465-19.313-1.226-29.35a192.538,192.538,0,0,0-4.165-28.935c.947-1.873,2.033-2.823,3.227-2.823a4.371,4.371,0,0,1,2.95,1.644c4.936,5.146,10.1,21.048,12.745,30.069,1.678,5.732,3.264,11.825,4.464,17.155a58.979,58.979,0,0,1,1.653,9.431c3.578-.445,7.182-.852,10.711-1.212-.4-11.954-.486-21.113-.281-29.694a257.818,257.818,0,0,1,2.261-29.576.762.762,0,0,1,.757-.7.713.713,0,0,1,.683.509,261.164,261.164,0,0,1,9.609,30.251,43.429,43.429,0,0,1,2.235,9.487,41.438,41.438,0,0,0,2.37,9.8,13.877,13.877,0,0,0,2.561,4.013,12.547,12.547,0,0,0,4.213,2.954c6.467,2.7,13.47,4.01,20.242,5.277,4.163.779,8.463,1.584,12.609,2.7a33.453,33.453,0,0,0,6.279-.857,2.74,2.74,0,0,0,2.216-2.861,3.2,3.2,0,0,0-2.546-3.1,18.262,18.262,0,0,0,.651-2.128c.272-.019.55-.036.822-.052l.074,0,.026,0c.269-.016.539-.032.808-.05a25.093,25.093,0,0,1-.331-9.264,82.329,82.329,0,0,1,1.98-9.369c1.472-5.84,2.994-11.879,1.971-17.9a49.271,49.271,0,0,0-4.628-19.24,54.574,54.574,0,0,0-11.281-15.842,61.435,61.435,0,0,0-16.124-11.378A62.649,62.649,0,0,0,317.7,1273.1a1.232,1.232,0,0,1-.972-1.263,1.286,1.286,0,0,1,.972-1.328,39.065,39.065,0,0,1,8.109-.838c8.21,0,16.946,2.483,25.265,7.18a67,67,0,0,1,10.916,7.71,63.837,63.837,0,0,1,8.839,9.334,64.567,64.567,0,0,1,5.521,8.53c-8.292-18.436-15.805-35.436-22.972-51.97C340.462,1249.311,327.153,1248.73,313.827,1248.73Zm7.985-26.117h-.02c-1.924.018-3.741.034-5.489.172a502.713,502.713,0,0,0-64.9,8.432c-4.66,1.141-9.468,2.289-14.117,3.4l-.007,0c-21.054,5.028-42.825,10.227-63.456,17.659a223,223,0,0,0-29.87,13.086c-4.867,2.6-9.532,5.392-13.866,8.285a143.5,143.5,0,0,0-12.924,9.705,53.85,53.85,0,0,0-9.839,13.9,76.2,76.2,0,0,0-5.866,16.453,118.16,118.16,0,0,0-2.556,34.5,67.78,67.78,0,0,0,6.179,24.014,79.253,79.253,0,0,0,13.8,20.342,120.17,120.17,0,0,1-7.631-24.453,88.018,88.018,0,0,1-1.483-22.181,76.067,76.067,0,0,1,4.014-19.966,79.826,79.826,0,0,1,8.859-17.808c7.991-12.1,19.669-23.115,34.708-32.751,13.687-8.77,30.081-16.362,48.726-22.566a335.693,335.693,0,0,1,55.094-13.049c9.128-1.395,18.4-2.459,27.545-3.165,8.92-.688,17.758-1.036,26.269-1.036a254.932,254.932,0,0,1,32.84,1.969c-3.2-7.461-5.857-13.669-8.511-19.957a13.668,13.668,0,0,1-7.913,4.316,50.094,50.094,0,0,1-9.582.693Zm231.683,53.9a92.5,92.5,0,0,1-15.665,12.126,149.142,149.142,0,0,1-18.363,9.629c-12.884,5.754-26.745,10.323-40.15,14.743l-.024.008c-8.4,2.77-16.338,5.387-23.83,8.215,2.472,2.612,5,5.314,7.226,7.7,9.629,10.3,18.724,20.034,27.463,27.227a67.024,67.024,0,0,0,12.832,8.606,27.866,27.866,0,0,0,12.329,3.213,20.714,20.714,0,0,0,9.3-2.223,31.48,31.48,0,0,0,9.073-7.158,68.337,68.337,0,0,0,8.882-12.822,152.9,152.9,0,0,0,8.725-19.213,63.336,63.336,0,0,1,7.926-11.28,51.707,51.707,0,0,1,10.364-9.071,132.824,132.824,0,0,1-16.09-29.7Zm-169.05,53.036h0a72.552,72.552,0,0,1-1.259,22.4,7.375,7.375,0,0,1,3.951,3.107,8.059,8.059,0,0,1,1.229,4.9c2.148-.243,4.983-.567,7.859-.935,8.821-1.1,17.771-2.4,26.426-3.648l.017,0h.008c14.5-2.1,29.5-4.269,44.34-5.589-6.819-8.811-12.324-18.519-16.81-26.853-12.779,4.032-25.652,7.813-38.26,11.24-5.869,2.131-10.719,3.167-14.827,3.167C390.708,1337.33,386.445,1334.711,384.445,1329.546Zm-3.991-17.949h0a71.143,71.143,0,0,1,3.791,16.155,8.245,8.245,0,0,1,1.168-3.563l0-.009c.133-.263.259-.511.378-.763l-1.78-3.94-.6-1.33ZM253.647,889.07c2.933,12.717,6.19,26.278,10.249,42.677,5.808,23.463,12.174,47.651,18.922,71.89,6.464,23.222,13.485,47.234,20.867,71.367,6.4,20.907,13.787,41.928,21.966,62.479,2.068,12.471,4.7,25.754,7.818,39.482,2.074,9.127,3.81,16.733,5.7,24.581.5,2.067.907,4.237,1.343,6.534l0,.015c1.083,5.717,2.2,11.628,4.749,16.351a3.759,3.759,0,0,0,3.423,2.081,4.817,4.817,0,0,0,3.748-1.85,3.94,3.94,0,0,0,.682-3.491c-1.875-6.995-3.731-14.116-5.526-21-3.853-14.787-7.838-30.076-12.242-44.977a1.788,1.788,0,0,0,.979-2.222c-7.951-30.751-17.339-61.622-26.417-91.476l-.006-.021c-5.089-16.736-10.352-34.041-15.312-51.164-12.66-43.7-23.923-86.76-33.271-123.122a19.175,19.175,0,0,0,1.789-1.027,2.487,2.487,0,0,0,1.072-2.808,2.384,2.384,0,0,0-2.326-1.754c-.633-.014-1.3-.036-1.985-.066-1.347-5.254-2.306-8.993-3.319-12.959-1.513-5.92-3.013-11.949-4.464-17.78l-.008-.033c-1.862-7.482-3.787-15.219-5.76-22.816-1.192-4.588-2.324-9.292-3.42-13.84l-.009-.035,0-.01c-2.119-8.8-4.311-17.9-7.04-26.645a.968.968,0,0,0-.957-.643.942.942,0,0,0-.706.283.758.758,0,0,0-.178.605c2.168,20.551,6.607,41.346,10.9,61.457l.023.106c.706,3.31,1.437,6.732,2.142,10.084,1.409,6.7,2.946,13.732,4.7,21.5a56.593,56.593,0,0,1-6.916-1.4c-1.757-.479-3.523-1.018-5.231-1.54l-.005,0a94.483,94.483,0,0,0-10.137-2.687,39.092,39.092,0,0,0-7.116-.71,24.211,24.211,0,0,0-8.134,1.3,18.7,18.7,0,0,0-7.089,4.514.659.659,0,0,0-.14.737.716.716,0,0,0,.64.454.683.683,0,0,0,.353-.1,18.116,18.116,0,0,1,9.568-2.646c5.989,0,12.078,2.628,17.967,5.169l.081.034c5.852,2.525,11.9,5.135,17.739,5.135l.3,0Zm295.906,163.973a.413.413,0,0,0-.426.4c-.352,9.312,1.263,19.053,2.824,28.474.423,2.552.86,5.187,1.241,7.729,2.132,14.218,4.135,25.846,6.3,36.594q.464,2.3.926,4.607l.106.53c4.539,22.626,9.232,46.022,17.7,67.588a2.1,2.1,0,0,0,3.577.685,2.058,2.058,0,0,0,.4-1.766c-2.613-13.933-6.266-27.925-9.8-41.456l0-.007,0-.006c-2.615-10.02-5.32-20.381-7.582-30.639-2.616-11.866-5.159-23.494-7.5-35.292-.8-4.041-1.474-8.256-2.125-12.333-1.326-8.306-2.7-16.893-5.247-24.818A.412.412,0,0,0,549.553,1053.043Zm319.566,3.9a3.837,3.837,0,0,0-.687.064c-40.486,7.409-80.437,16.844-117.58,25.937l-1.512.37-.013,0c-37.7,9.231-76.69,18.777-114.729,29.246-10.844,2.985-21.41,6-31.448,10.027-4.142,1.663-9,3.68-13.595,6.029-.4.2-.811.41-1.209.61l-.083.042c-3.67,1.837-7.465,3.736-9.428,7.345a.319.319,0,0,0-.006.31.353.353,0,0,0,.288.177c.267.019.54.029.812.029,3.026,0,5.82-1.216,8.521-2.393l.038-.017c.736-.32,1.5-.651,2.254-.954,4.177-1.672,8.665-3.426,13.182-4.926,8.3-2.756,17.187-5.319,27.157-7.835,12.966-3.271,26.188-6.462,38.974-9.547l.079-.019.136-.033c6.129-1.479,12.467-3.008,18.694-4.527,38.921-9.491,78.722-18.792,116.153-27.506,19.825-4.616,41.089-9.951,65.008-16.312a3.061,3.061,0,0,0,1.861-1.275,2.89,2.89,0,0,0,.4-1.922A3.3,3.3,0,0,0,869.119,1056.941ZM529.178,886.914h0a7.541,7.541,0,0,1,5.362,2.162A5.521,5.521,0,0,1,536.1,893.2c-.551,14.844-1.171,29.838-1.77,44.338l-.013.322c-.3,7.336-.616,14.922-.916,22.382-.089,2.16-.256,4.48-.433,6.935-.945,13.089-2.12,29.379,7.563,38.327,8.077-7.68,8.534-19.276,8.977-30.49v-.007a108.521,108.521,0,0,1,1-12.875q2.863-32.714,5.73-65.445a6.408,6.408,0,0,1,2.409-4.59,7.356,7.356,0,0,1,4.56-1.543,6.259,6.259,0,0,1,4.557,1.8,5.684,5.684,0,0,1,1.442,4.333c-.577,16.327-.484,30.84.283,44.368a266.086,266.086,0,0,0,5.637,43.053c.4,2.117.815,4.17,1.131,5.723.294-.353.54-.653.78-.974a10.513,10.513,0,0,1-1.63-4.64,6.684,6.684,0,0,0,5.028-2.681c2.146-2.6,3.157-6.416,3.627-9.156a31.409,31.409,0,0,0,.214-9.647c.5-6.268.676-12.693.842-18.906.082-3.039.166-6.177.288-9.237.553-13.9.835-25.322.89-35.933.067-13.032-.215-24.794-.862-35.958-1.529-26.389-5.153-49.583-11.078-70.909a236.206,236.206,0,0,0-8.273-25.3,210.186,210.186,0,0,0-10.37-22.459,214.366,214.366,0,0,0-26.53-38.456c-4.868-5.683-10.071-11.255-15.908-17.034-5.308-5.256-11.033-10.575-17.5-16.262C483.289,661.3,469.528,650.309,456.5,640c-14.435-12.083-29.42-24.141-45.813-36.863-14.6-11.334-29.987-22.93-47.028-35.451-31.658-23.262-64.287-46.2-95.841-68.38l-.069-.048c-15.172-10.665-30.86-21.693-46.177-32.574a7.412,7.412,0,0,1-1.483.155,5.932,5.932,0,0,1-4.555-2.059,7.47,7.47,0,0,1-1.612-5.987c2.023-9.51,10.48-18.371,18.66-26.941,4.46-4.673,8.673-9.086,11.8-13.515a13.013,13.013,0,0,1-2.938.335c-5.337,0-10.29-3.148-15.079-6.193-1.531-.974-2.976-1.892-4.421-2.7-6.445-3.618-13.093-7.177-19.76-10.579-8.8-4.6-18.066-9.092-27.535-13.364-9.014-4.066-18.5-8.06-28.207-11.871-17.894-7.027-36.817-13.588-57.849-20.056C75.9,386.584,64.311,420.243,53.1,452.794l-.006.018c-4.987,14.481-10.144,29.455-15.33,44.149-1.219,3.226-2.309,6.631-3.363,9.924-2.7,8.429-5.488,17.146-10.8,24.227-2.05,19.7,9.815,37.078,20.129,48.188,9.166,9.345,20.793,17.034,35.545,23.505,13.539,5.939,28.183,10.176,40.847,13.68,62.189,16.944,134.461,36.667,205.2,56.315,9.095,2.587,18.382,5.075,27.363,7.482l.026.007.009,0c16.451,4.408,33.463,8.967,49.932,14.3,2.443.779,5.079,1.447,7.628,2.093,9.631,2.441,19.59,4.966,24.271,14.19.062-.167.175-.489.331-.935l.009-.026c.686-1.959,2.293-6.546,4.03-10.555,2.161-4.983,3.833-7.51,4.97-7.51.575,0,1.016.658,1.311,1.955-3.371,9.059-5.048,19.2-5.124,30.987-.059,9.05.787,18.775,2.744,31.533.406,2.646.838,5.411,1.219,7.85,2.448,15.67,4.979,31.873,5.822,47.972-.552,19.468-2.272,39.238-3.935,58.357v.011c-1.639,18.846-3.334,38.334-3.91,57.524-.31,10.332-.281,19.756.09,28.81.416,10.161,1.249,19.6,2.546,28.86a37.446,37.446,0,0,0,9.328-9.621,51,51,0,0,0,5.835-11.883c2.98-8.482,4.4-17.925,5.776-27.057a191.339,191.339,0,0,1,3.481-18.944c2.342-11.852,5.053-24.435,8.53-39.6a6.439,6.439,0,0,1,2.685-3.99,7.9,7.9,0,0,1,4.447-1.281,8.342,8.342,0,0,1,6.061,2.453,6.177,6.177,0,0,1,1.617,4.787c-1.309,17.773-1.712,35.865-2.1,53.362-.06,2.695-.128,5.749-.2,8.675.324,3.263,0,8.478-.375,14.517-.809,13.016-1.815,29.216,3.615,32.924a7.009,7.009,0,0,0,2.936.713,6.522,6.522,0,0,0,5.086-2.867,24.627,24.627,0,0,0,3.6-7.182c1.986-5.754,3.234-12.988,4.237-18.8a77.08,77.08,0,0,1,1.852-9.009c4.375-20.337,8.493-41,12.24-61.407C523.928,888.118,526.747,886.914,529.178,886.914ZM503.861,660.247a7.161,7.161,0,0,1,4.8,1.913,226.877,226.877,0,0,1,30.442,30.508A232.8,232.8,0,0,1,562.5,727.023a261.6,261.6,0,0,1,17.091,37.44,312.88,312.88,0,0,1,11.543,39.766,387.215,387.215,0,0,1,6.748,41.332c1.473,13.4,2.383,27.581,2.705,42.139.3,13.457.1,27.65-.586,42.185-.625,13.23-1.676,27.183-3.125,41.472a209.654,209.654,0,0,0,32.213,2.738h.013a130.553,130.553,0,0,0,20.751-1.556,88.353,88.353,0,0,0,17.548-4.625,64.788,64.788,0,0,0,14.355-7.622,55.856,55.856,0,0,0,11.184-10.549c15.664-19.549,18.882-50.6,9.566-92.276-1.347-9.425-2.278-19.073-2.844-29.494-.5-9.279-.707-18.959-.618-29.6.165-19.747,1.336-39.813,2.468-59.218l.015-.264q.215-3.7.429-7.386c2.769-44.727,5.244-90.2,7.637-134.184,3.7-68.042,7.533-138.4,12.533-207.526.953-13.608,2.561-27.383,4.918-42.113,2.107-13.166,4.763-26.775,8.122-41.6a1,1,0,0,1,1.06-.9,1.375,1.375,0,0,1,1.419,1.228c1.7,14.625,2.83,28,3.463,40.894.708,14.419.776,27.844.207,41.041a166.286,166.286,0,0,1,21.107-17.112,194.587,194.587,0,0,1,24.659-14.4c18-8.815,36.39-14.4,53.184-16.162-3.714-15.893-7.015-35.709-10.51-56.69-5.1-30.61-10.879-65.3-19.344-96.018-2.194-7.961-4.515-15.448-6.9-22.254-2.569-7.335-5.307-14.152-8.137-20.261a145.675,145.675,0,0,0-9.58-17.621,92.534,92.534,0,0,0-11.231-14.335c-11.3-10.052-26.546-13.066-39.949-15.1-25.945-3.943-52.291-8.166-77.769-12.249l-11.031-1.767a9.036,9.036,0,0,1,2.968,2.926,9.6,9.6,0,0,1,1.392,4.441c2.011,21.293,2.537,52.709-6.379,81.451A122.341,122.341,0,0,1,636.267,192a97.417,97.417,0,0,1-10.7,16.812,83.328,83.328,0,0,1-32.5,24.858,151.035,151.035,0,0,1-27.453,7.444,168.326,168.326,0,0,1-28.737,2.443,180.168,180.168,0,0,1-41.543-4.89,175.878,175.878,0,0,1-39.193-14.323,154.756,154.756,0,0,1-33.9-23.226,131.8,131.8,0,0,1-25.657-31.6c-3.51-6.648-6.181-13.946-8.765-21a183.411,183.411,0,0,0-7.946-19.391c-.613.1-1.231.153-1.828.209l-.081.008c-.624-1.551-1.2-3.137-1.763-4.671-.781-2.139-1.588-4.35-2.526-6.491a2.763,2.763,0,0,0-.219-2.7,3.784,3.784,0,0,0-3.116-1.617,3.889,3.889,0,0,0-2.315.777,9.9,9.9,0,0,1,.99-1.044c-.083-.089-.171-.173-.257-.255l-.006-.006-.107-.1a333.251,333.251,0,0,0-78.838,21.114,340.278,340.278,0,0,0-70.886,39.029,335.114,335.114,0,0,0-59.4,54.515,319.893,319.893,0,0,0-44.386,67.574,553.964,553.964,0,0,0-24.869,54.2c10.076,1.6,20.386,3.612,30.641,5.99,9.9,2.3,20.037,5,30.134,8.027a585.327,585.327,0,0,1,58.555,21.2,107.834,107.834,0,0,0,11.5,5.082l.005,0c6.6,2.662,14.074,5.679,19.869,9.2,6.724,4.09,9.791,8.045,9.377,12.092,10.03-11.551,20.325-24.694,31.471-40.18,9.93-13.8,19.591-28.119,28.935-41.971l.005-.008,2.488-3.688a1.609,1.609,0,0,1,.532-.108.643.643,0,0,1,.587.315c.726,1.191-.754,5.834-4.4,13.8-3.058,6.685-7.026,14.385-9.653,19.481-1.5,2.9-2.578,5-2.9,5.755a577.013,577.013,0,0,1-29.7,51.035c-5.655,8.554-11.459,16.636-17.252,24.021a289.063,289.063,0,0,1-19.336,22.286c2.548,2.509,7.4,5.286,12.545,8.226,9.8,5.6,20.9,11.949,20.505,18.822,20.455,12.481,41.172,25.773,61.575,39.506,19.818,13.339,39.928,27.492,59.772,42.064,19.22,14.114,38.753,29.036,58.056,44.35,18.645,14.792,37.63,30.392,56.428,46.365A7.657,7.657,0,0,1,503.861,660.247ZM736.275,493.1h0c-3.214,56-6.323,112.761-9.33,167.653l-.033.6c-1.3,23.661-2.636,48.128-3.966,72.185a762.135,762.135,0,0,0-2.478,77.5c.314,13.264,1.077,26.261,2.269,38.63,1.267,13.148,3.067,26.084,5.348,38.45a120.562,120.562,0,0,1-1.6,35.2,107.645,107.645,0,0,1-12.378,33.051c11.632,4.068,24.642,6.047,39.775,6.047,6.943,0,14.515-.413,23.153-1.263,7.518-.74,14.806-1.694,22.872-2.775-4.069-7.193-4.793-15.551-5.493-23.634v-.009c-.178-2.052-.362-4.174-.6-6.234-5.781-51.669-12.745-108.1-21.291-172.508-7.62-57.438-15.767-115.786-23.645-172.212-4.146-29.7-8.433-60.4-12.6-90.686Zm107.9-130.587h0a305.292,305.292,0,0,0-53.583,14.47,271.715,271.715,0,0,0-49.677,24.429c-.494,15.37-1.25,31.966-2.38,52.227,6.456,28.906,11.99,57.376,17.559,86.427,10.574,56.527,20.46,115.986,30.221,181.773,8.044,54.207,15.943,112.221,24.859,182.572.358,5.984,1.331,12.126,2.272,18.067l0,.01c.873,5.516,1.777,11.219,2.192,16.809a65.25,65.25,0,0,1-.655,16.672c23.378-4.309,54.244-9.705,85.671-13.229-2.466-16.348-4.528-33.066-6.306-51.107-1.584-16.077-2.9-32.852-4.037-51.286-2.1-34.236-3.217-69.131-4.293-102.877v-.006c-1.1-34.405-2.233-69.981-4.418-104.9-1.176-18.8-2.554-35.912-4.212-52.316-1.861-18.416-4.025-35.473-6.615-52.146-6.855-55.568-16.892-111.5-26.6-165.581ZM95.365,627.469c-6.538,38.681-15.162,77.667-23.5,115.368l-.007.032C66.519,767,61,791.956,56.079,816.6c-5.521,27.646-9.687,51.96-12.735,74.331-3.174,19.912-5.9,38.159-8.32,55.783,8.988-25.8,18.713-51.618,28.9-76.748,10.263-25.314,21.277-50.618,32.736-75.208,11.544-24.773,23.851-49.487,36.578-73.456,12.83-24.162,26.431-48.214,40.426-71.49-9.59-2.78-19.39-5.446-28.866-8.024C128.518,637.356,111.682,632.775,95.365,627.469ZM620.044,89.6c1.19,2.314,2.395,4.514,3.58,6.541.948,1.617,2.107,3.256,3.228,4.841a44.252,44.252,0,0,1,4.853,7.984c-.025-2.139-.082-4.3-.138-6.4v-.012c-.1-3.954-.213-8.043-.1-12.039a88.547,88.547,0,0,0-11.258-.91Z" transform="translate(100 -53.998)"></path></g><g transform="translate(225 0)"><g><g><path id="_Skin" data-name="âœ‹ Skin" d="M185.625,0c56.781,0,115.511,44.012,136.324,72.1C346.015,104.572,365,260.469,356.094,313.368S302.949,423.924,226.15,423.924s-123.536-9.459-125.41-23.2-50.654-90.219-50.654-90.219S.2,296.473,0,262.954,26.736,217.24,26.736,217.24s-9.6-132.279,14.58-166.718S128.844,0,185.625,0Z" transform="translate(56.417 75.26)" fill="#d08b5b"></path><path id="_Ink" data-name="ðŸ– Ink" d="M229.621,443.145a165.926,165.926,0,0,1-28.257-2.44A87.852,87.852,0,0,1,190,437.965a73.4,73.4,0,0,1-11.027-4.444,49.655,49.655,0,0,1-18.057-14.736.969.969,0,0,1-.126-1.048,1.482,1.482,0,0,1,1.28-.731,1.223,1.223,0,0,1,.514.108,141.953,141.953,0,0,0,30.844,10.109,159.735,159.735,0,0,0,32.282,3.236,176.217,176.217,0,0,0,23.325-1.574,135.133,135.133,0,0,0,39.63-11.48c8-3.758,15.182-8.906,22.125-13.884,2.208-1.583,4.488-3.218,6.764-4.786a80.408,80.408,0,0,1,5.821-7.1l3.308-3.47c2.365-2.493,4.864-5.2,7.11-8.1a111.091,111.091,0,0,0,9.259-13.988,101.1,101.1,0,0,0,6.941-15.262c6.79-19.109,5.506-39.774,4.264-59.759l0-.057c-.083-1.329-.168-2.7-.249-4.049l-.111-1.876c-1.314-22.642-3.484-45.534-6.45-68.04-2.9-22.012-6.685-44.74-11.25-67.549-1.067-5.328-2.216-10.723-3.326-15.94v-.006c-1.19-5.59-2.42-11.37-3.552-17.074-.938-4.716-1.652-9.565-2.343-14.254l-.021-.142q-.207-1.407-.417-2.814a66.954,66.954,0,0,1-.52-9.924v-.366a4.576,4.576,0,0,1-.328.445l-.012.015a1.931,1.931,0,0,1-.769,2.441,12.669,12.669,0,0,1-6.422,1.365c-.727,0-1.472-.024-2.192-.048h-.008c-.717-.024-1.456-.048-2.183-.048h-.115c-3.96.02-7.983.03-11.873.039h-.067c-2.361.009-4.839.013-7.578.013-1.523,0-3.112,0-4.857,0l-12.435-.029L227.434,93C226.245,93,225,93,223.727,93c-6.654,0-13.431.049-19.985.1h-.019c-6.562.048-13.348.1-20.068.1-16.109,0-35.169-.245-54.394-2.062l-2.479-.245c-1.016-.117-6.109-.735-12.556-1.518l-.111-.013c-9.708-1.179-21.789-2.646-26.465-3.192l-.237-.028a298.081,298.081,0,0,1-42.09-7.71c2.359.945,4.708,2.079,6.981,3.175,2.079,1,4.228,2.04,6.368,2.925,6.155,2.533,12.372,4.682,17.642,6.45,3.832,1.288,7.729,2.585,11.5,3.839l.036.012c8.185,2.724,16.648,5.54,24.945,8.429,1.085.377,2.681,3.517,4.879,9.6,1.874,5.186,3.862,11.625,5.458,16.8,1.363,4.416,2.439,7.9,3.024,9.286l.059.135c.113.254.233.517.35.771l0,.006c.964,2.1,1.961,4.274,1.277,6.564-1.3,4.372-6.938,7.892-11.465,10.72-1.377.86-2.674,1.67-3.714,2.42l-4.6,3.316-6.009,4.348c-1.8,1.292-3.607,2.452-5.816,2.453a7.107,7.107,0,0,1-2.15-.347.035.035,0,0,0-.029-.01c2.285,10.608,3.587,40.626,4.213,55.052v.01c.126,2.905.226,5.2.3,6.448.08,1.413.233,2.893.395,4.46.545,5.283,1.163,11.268-1.135,15.749a4.671,4.671,0,0,1-3.85,2.348c-.074,0-.148,0-.22-.008-6.24-.471-12.585-.941-18.721-1.395l-.118-.009-1.44-.107a4.231,4.231,0,0,1-3.961-3.01l-.02-.1a.707.707,0,0,1-.183.025.681.681,0,0,1-.5-.225c-.371-.372-.754-.735-1.14-1.08a30.13,30.13,0,0,0-10.163-5.9A35.813,35.813,0,0,0,45.794,239.6a34.189,34.189,0,0,0-11.911,2.1c-3.249,1.219-11.348,4.683-16.37,10.52a21.527,21.527,0,0,0-4.432,9.082,43.333,43.333,0,0,0-1.058,10.168,53.12,53.12,0,0,0,.865,9.639,50.438,50.438,0,0,0,2.636,9.3,46.009,46.009,0,0,0,4.423,8.557,41.933,41.933,0,0,0,6.225,7.416c8.811,8.284,20.272,10.66,31.356,12.958l1.215.252a3.283,3.283,0,0,1,2.416,2.537,3.433,3.433,0,0,1-.955,3.483A137.861,137.861,0,0,1,72.3,339.838c.638.823,1.3,1.673,1.949,2.507,5,6.389,10.321,13.65,16.75,22.852l2.606,3.738.968,1.379c4.687,6.674,10,14.237,13.531,22.271,4.108,9.343,4.888,17.334,2.384,24.43a3.2,3.2,0,0,1-2.983,2.1,2.6,2.6,0,0,1-2.328-1.413,114.867,114.867,0,0,1-5.6-12.687c-1.476-3.748-3-7.623-4.861-11.282-3.776-7.419-8.523-14.418-13.113-21.186l-.417-.615-2.769-4.1c-4.158-6.179-9-13.487-13.411-20.838l-2.948-4.887A109.511,109.511,0,0,1,54.5,327.765a29.275,29.275,0,0,1-6.85.8,34.769,34.769,0,0,1-8.636-1.134,43.671,43.671,0,0,1-8.317-3.1,53.035,53.035,0,0,1-14.277-10.34A54.23,54.23,0,0,1,8.59,303.793a59.8,59.8,0,0,1-5.359-11.725A62.961,62.961,0,0,1,.253,266.6c.965-10.449,4.226-18.27,9.97-23.91.7-.682,1.436-1.323,2.061-1.859a1.19,1.19,0,0,1-.561-.571A67.044,67.044,0,0,1,7.388,223.6a162.456,162.456,0,0,1-1.335-17.265,317.783,317.783,0,0,1,.74-34.69,298.818,298.818,0,0,1,11.491-62.55A195.753,195.753,0,0,1,36.915,65.556,135.019,135.019,0,0,1,67.284,29.435C79.64,19.31,94.635,11.654,111.852,6.678a166.7,166.7,0,0,1,24.791-5.094A196.582,196.582,0,0,1,161.785,0h.348l1.012,0a217.494,217.494,0,0,1,91.592,21.122A204.168,204.168,0,0,1,294.667,46.1a182.981,182.981,0,0,1,32.573,33.719l1.124,1.537c.07.092,1.181,1.746,1.444,2.219.627,1.125,1.31,2.239,1.971,3.315l0,.006c.968,1.577,1.968,3.207,2.8,4.888a47.579,47.579,0,0,1,2.319,6.083c.16.484.34,1.031.518,1.555l.264.762c2.1,6.018,3.991,12.353,5.771,19.37,3.2,12.688,5.692,25.508,8.17,38.62,4.308,22.859,7.956,46.348,10.84,69.817,2.843,23.128,5.014,46.8,6.455,70.359l.567,9.448c.586,9.908,1.021,19.613-.083,29.407a95.894,95.894,0,0,1-3.365,16.571,106.493,106.493,0,0,1-6.124,15.769,128.563,128.563,0,0,1-17.17,26.39c-3.476,4.18-7.349,8.492-12.12,11.709-3.741,2.522-8.1,4.178-12.32,5.78a69.758,69.758,0,0,1-11.462,9.087,116.331,116.331,0,0,1-12.767,7.054,126.971,126.971,0,0,1-22.006,8.051,167.124,167.124,0,0,1-23.034,4.369A163.306,163.306,0,0,1,229.621,443.145ZM58.583,299.085a5.054,5.054,0,0,1-3.051-.929,4.357,4.357,0,0,1-1.669-2.961,37.31,37.31,0,0,0-5.669-15.28,9.293,9.293,0,0,0-2.049.95,16.034,16.034,0,0,0-1.949,1.568c-1.328,1.189-2.582,2.312-4.553,2.312a5.572,5.572,0,0,1-.659-.04c-2.537-.3-5.018-2.058-4.851-4.85a6.418,6.418,0,0,1,2.633-5.069,10.291,10.291,0,0,1,5.468-1.731c-.693-.62-1.235-1.091-1.759-1.523l-.653-.526c-1.039-.75-7.026-4.826-8.541-4.826-.209,0-.327.078-.352.23l-.005.084a.608.608,0,0,1-.178.439.72.72,0,0,1-.5.213.583.583,0,0,1-.438-.192,1.976,1.976,0,0,1-.619-1.765,3.677,3.677,0,0,1,2.259-2.265,6.056,6.056,0,0,1,2.514-.494c3.852,0,8.689,2.8,10.278,3.719l.217.125a41.812,41.812,0,0,1,12.4,11.129,47.3,47.3,0,0,1,7.5,14.9,4.77,4.77,0,0,1-.676,4.372A6.5,6.5,0,0,1,58.583,299.085Z" transform="translate(51 62.001)"></path></g></g><g transform="translate(159 186)"><g><path d="M175.373 49.5872C175.699 49.4437 175.991 49.2049 176.203 48.8583C178.978 44.3099 179.267 38.8813 178.039 33.5637C176.563 27.172 172.899 20.9588 168.944 16.7559C163.959 11.4582 157.895 7.75374 151.246 4.94731C150.762 4.74287 150.267 4.53098 149.763 4.31514C142.964 1.40541 134.597 -2.01031 127.865 1.47064C125.161 2.86951 123.673 5.20381 123.256 7.7496C122.814 10.4534 123.597 13.4099 125.462 15.7216C128.557 19.5594 133.339 20.3533 138.087 21.0465C139.602 21.2677 141.106 21.486 142.53 21.8229C147.429 22.9821 152.604 24.4361 157.104 26.7244C166.253 31.3762 170.54 38.5898 172.747 48.2853C172.837 48.6781 173.037 48.9988 173.3 49.2406C173.575 49.4928 173.921 49.6579 174.285 49.7192C174.651 49.7808 175.032 49.7375 175.373 49.5872ZM58.3942 19.1934C55.0693 22.4329 51.1339 22.9347 47.1526 23.381C44.9405 23.6313 43.1746 23.8331 41.4369 24.2252C36.6605 25.3034 31.9393 26.9272 27.6319 29.2659C23.1292 31.7106 18.2224 34.659 14.6922 38.4361C13.8528 39.3349 13.0615 40.278 12.2691 41.2232C11.5465 42.0851 10.8505 42.9149 10.1169 43.7149C9.27449 44.6339 8.47449 45.597 7.67875 46.5576C7.1867 47.3681 7.0895 47.5675 6.99041 47.775C6.8413 48.0869 6.66786 48.4359 6.46976 48.8103C6.19845 49.323 5.88066 49.8843 5.54784 50.3932C4.9941 51.3234 4.69697 51.5796 4.44022 51.6942C4.01419 51.8839 3.61015 51.9774 3.21817 51.9268C2.85064 51.8793 2.50438 51.7028 2.16244 51.4138C0.455387 49.9715 -0.0480658 47.6046 0.00353523 45.092C0.0818393 41.2793 1.48813 37.0578 2.78452 34.4628C5.79888 28.4331 9.97938 22.1649 15.0062 17.6646C20.7422 12.5276 27.0177 8.63869 34.2256 5.95894C38.705 4.29304 43.8913 2.76391 48.7713 2.95706C52.284 3.09609 55.6373 4.14026 58.4066 6.74782C60.1072 8.34853 60.9235 10.6254 60.9235 12.9006C60.9235 15.2211 60.0757 17.5554 58.3942 19.1934ZM164.634 78.3299C166.478 78.8824 167.779 78.6212 169.441 77.7551C170.719 77.0896 171.589 76.0387 172.088 74.8117C172.599 73.5559 172.706 72.1077 172.454 70.7659C171.405 65.1948 168.042 60.2513 163.503 57.0672C159.091 53.9728 153.589 52.5435 148.048 53.7341C144.003 54.6036 138.007 58.4424 134.85 63.1243C133.504 65.1203 132.671 67.2595 132.581 69.3723C132.495 71.387 133.008 73.4183 135.676 76.096C135.935 76.177 136.208 76.2208 136.477 76.2208C137.138 76.2208 137.821 75.9439 138.274 75.5441C139.469 74.4935 140.311 73.1636 141.178 71.7329C141.641 70.9679 142.102 70.1976 142.69 69.5195C144.449 67.4927 147.002 65.7736 149.683 65.3262C152.167 64.911 154.406 65.6469 156.181 67.0355C158.256 68.6601 159.713 71.1522 160.252 73.8146C160.472 74.8933 161.036 75.8657 161.818 76.6477C162.607 77.4367 163.615 78.0237 164.634 78.3299ZM46.1749 69.1109C43.7479 67.5587 40.8928 67.0259 37.7287 68.4655C35.256 69.5899 30.9192 73.3385 27.9011 78.2662C25.8363 81.6374 24.3721 85.5922 24.6769 89.7117C24.7477 90.6684 24.3942 91.3738 23.8366 91.8954C23.3962 92.3073 22.7601 92.61 22.013 92.7047C21.3786 92.785 20.6686 92.7125 20.0913 92.5324C18.9931 92.1896 18.4119 91.4772 18.1929 90.8957C16.0797 85.2836 16.9901 79.0208 19.3585 73.3707C22.5547 65.7456 28.3592 59.3585 32.1622 57.2993C38.6698 53.7742 46.347 53.612 52.8639 57.2031C58.4114 60.2596 61.8802 65.1942 65.3301 70.2242C66.0635 71.2934 66.7914 72.3548 67.5436 73.3976C69.0513 75.487 69.2013 77.5593 68.6175 79.3363C67.9707 81.3049 66.3215 82.9663 64.2592 83.8357C62.353 84.6393 60.1407 84.7524 58.1831 83.9268C56.5293 83.2293 55.0117 81.8695 54.0513 79.5625C52.434 75.6771 49.7393 71.3904 46.1749 69.1109ZM127.748 115.98C135.872 104.601 124.366 93.898 116.814 89.3079C114.836 87.8879 116.406 83.1842 120.634 83.9112C159.031 90.5082 139.136 156.649 90.112 120.354C84.2754 115.645 91.3434 105.275 97.6342 109.307C97.9532 109.552 98.2876 109.81 98.6364 110.08C105.704 115.544 118.636 125.542 127.748 115.98ZM117.042 185.1C109.675 187.233 101.768 187.424 94.2589 185.221C87.4481 183.222 80.4549 178.823 75.4423 173.003C70.9894 167.832 68.1055 161.549 68.2187 154.842C68.2316 154.076 68.5055 153.436 68.9268 152.94C69.3804 152.406 70.014 152.039 70.6926 151.88C71.3906 151.716 72.1285 151.774 72.7568 152.059C73.3256 152.318 73.8129 152.757 74.1176 153.398C74.8879 154.41 75.6553 155.407 76.4257 156.376C82.6196 164.024 88.618 169.74 97.9319 171.79C102.985 172.903 108.032 172.409 112.663 170.712C117.62 168.895 122.102 165.7 125.613 161.612C127.2 159.765 129.074 159.011 130.905 158.998C132.982 158.983 135.034 159.948 136.579 161.49C138.099 163.006 139.116 165.065 139.209 167.219C139.29 169.11 138.673 171.085 137.032 172.848C131.626 178.652 124.621 182.904 117.042 185.1Z" transform="translate(54.00004 55.05923)" fill-rule="evenodd" stroke="none"></path></g></g><g transform="translate(123 338)"></g><g transform="translate(47 241)"><g><path d="M409.463 3.8448C410.287 3.9658 411.111 4.0948 411.934 4.2318C418.27 5.2808 419.246 15.2398 413.729 17.9668C409.483 20.0668 406.817 24.2488 407.954 29.0788C408.779 32.5828 407.27 35.3698 404.887 36.8078C404.153 59.4058 400.438 84.7238 382.858 101.261C342.399 128.036 302.322 95.3878 310.705 43.7638C310.105 43.3428 309.577 42.8078 309.189 42.1368C308.911 41.6868 308.672 41.2368 308.449 40.7878C307.565 40.0648 301.03 37.7038 292.541 38.8798C284.052 40.0568 281.355 44.0148 277.062 48.3008C276.399 49.5928 275.264 50.5688 273.479 50.9698C270.103 69.9788 266.632 91.0678 252.071 105.304C215.602 139.383 152.661 111.085 154.989 59.2428C142.316 57.0798 152.882 42.2078 132.833 38.8798C129.215 37.6678 125.792 35.3518 123.536 32.6958C93.5503 29.4738 64.0323 30.9178 35.0393 41.3338C33.2654 42.076 31.4106 42.7524 29.5642 43.4257C19.2827 47.175 9.2641 50.8284 14.9483 65.2098C14.7313 69.9788 8.89832 72.8158 5.46132 69.2928L5.45832 69.2958C5.45332 69.2898 5.45032 69.2828 5.44632 69.2768C-14.0668 34.2407 22.9785 28.378 51.445 23.8729C52.0721 23.7736 52.6952 23.675 53.3133 23.5768C68.6263 20.2758 84.2953 18.8808 99.9463 19.2088C101.76 19.2865 103.703 19.3157 105.697 19.3457C111.762 19.4369 118.302 19.5352 123.121 21.0268C123.147 21.0348 123.172 21.0408 123.197 21.0478C129.862 0.847801 268.445 -3.8812 276.461 29.6238C280.189 29.5282 283.582 29.8068 286.814 30.0721C292.712 30.5563 298.071 30.9962 303.94 29.0368C306.664 4.6888 372.671 -4.4282 401.203 1.9928C403.191 2.1778 405.182 2.5208 407.187 3.0298C408.065 3.1988 408.82 3.4798 409.463 3.8448ZM349.405 100.25C360.918 101.245 373.4 98.3638 380.133 89.3188C391.579 73.6748 394.672 53.4838 394.854 34.9018C391.884 31.9349 390.53 28.6015 389.288 25.5433C386.823 19.475 384.798 14.4901 371.456 15.6018C335.435 17.9104 329.443 32.0442 325.678 40.9243C323.493 46.076 322.059 49.4595 315.945 47.7398C316.759 69.6588 324.574 97.8598 349.405 100.25ZM261.862 67.9668C247.202 136.62 166.924 120.29 158.491 58.4038C166.278 52.9078 164.227 39.3368 173.901 34.4198C188.988 24.7808 207.786 25.032 224.972 25.2616C225.252 25.2654 225.531 25.2691 225.81 25.2728C248.065 26.8018 254.407 36.0208 265.839 46.0788C265.289 52.7968 263.703 60.7588 261.862 67.9668Z" transform="translate(-12.99972 8.999499)" fill-rule="evenodd" stroke="none"></path></g></g></g></g></svg>